<svg xmlns="http://www.w3.org/2000/svg" xmlns:xlink="http://www.w3.org/1999/xlink" data-name="Layer 1" viewBox="0 0 128 128"><defs><clipPath id="b"><path fill="none" d="M64-153.91a12 12 0 0 1 6 1.61l37.16 21.45a12 12 0 0 1 6 10.39v42.91a12 12 0 0 1-6 10.39L70-45.7a12 12 0 0 1-6 1.61 12 12 0 0 1-6-1.61L20.84-67.15a12 12 0 0 1-6-10.39v-42.91a12 12 0 0 1 6-10.39L58-152.3a12 12 0 0 1 6-1.61m0-8a20 20 0 0 0-10 2.68l-37.16 21.46a20 20 0 0 0-10 17.32v42.91a20 20 0 0 0 10 17.32L54-38.77a20 20 0 0 0 10 2.68 20 20 0 0 0 10-2.68l37.16-21.45a20 20 0 0 0 10-17.32v-42.91a20 20 0 0 0-10-17.32L74-159.23a20 20 0 0 0-10-2.68Z"/></clipPath><clipPath id="c"><path fill="none" d="M64-115a16 16 0 0 0-16 16 16 16 0 0 0 16 16 16 16 0 0 0 16-16 16 16 0 0 0-16-16Zm0 24a8 8 0 0 1-8-8 8 8 0 0 1 8-8 8 8 0 0 1 8 8 8 8 0 0 1-8 8Z"/></clipPath><clipPath id="e"><path fill="none" d="M84-63H44a16 16 0 0 1-16-16v-40a16 16 0 0 1 16-16h40a16 16 0 0 1 16 16v40a16 16 0 0 1-16 16Zm-40-64a8 8 0 0 0-8 8v40a8 8 0 0 0 8 8h40a8 8 0 0 0 8-8v-40a8 8 0 0 0-8-8Z"/></clipPath><clipPath id="f"><circle cx="82" cy="-117" r="5" fill="none"/></clipPath><radialGradient id="a" cx="27.5" cy="-41.5" r="137.5" gradientUnits="userSpaceOnUse"><stop offset="0" stop-color="#ffd676"/><stop offset=".25" stop-color="#f2a454"/><stop offset=".38" stop-color="#f05c3c"/><stop offset=".7" stop-color="#c22f86"/><stop offset=".96" stop-color="#6666ad"/><stop offset=".99" stop-color="#5c6cb2"/></radialGradient><radialGradient id="d" cx="27.5" cy="-41.5" r="148.5" xlink:href="#a"/><radialGradient id="g" cx="13.87" cy="-22.62" r="185.63" xlink:href="#a"/></defs><g clip-path="url(#b)"><circle cx="27.5" cy="-41.5" r="137.5" fill="url(#a)"/></g><g clip-path="url(#c)"><circle cx="27.5" cy="-41.5" r="148.5" fill="url(#d)"/></g><g clip-path="url(#e)"><circle cx="27.5" cy="-41.5" r="148.5" fill="url(#d)"/></g><g clip-path="url(#f)"><circle cx="13.87" cy="-22.62" r="185.63" fill="url(#g)"/></g><path fill="#0177b5" d="M64 9.09a12 12 0 0 1 6 1.61l37.16 21.45a12 12 0 0 1 6 10.39v42.91a12 12 0 0 1-6 10.39L70 117.3a12 12 0 0 1-12 0L20.84 95.85a12 12 0 0 1-6-10.39V42.55a12 12 0 0 1 6-10.39L58 10.7a12 12 0 0 1 6-1.61m0-8a20 20 0 0 0-10 2.68L16.84 25.23a20 20 0 0 0-10 17.32v42.9a20 20 0 0 0 10 17.32L54 124.23a20 20 0 0 0 20 0l37.16-21.45a20 20 0 0 0 10-17.32V42.55a20 20 0 0 0-10-17.32L74 3.77a20 20 0 0 0-10-2.68Z"/><path fill="#0177b5" d="M92 32H36a4 4 0 0 0-4 4v56a4 4 0 0 0 4 4h56a4 4 0 0 0 4-4V36a4 4 0 0 0-4-4ZM52 86H42V56h10Zm-5-34a6 6 0 1 1 6-6 6 6 0 0 1-6 6Zm39 34H76V66c0-1.66-2.24-3-5-3-4 0-5 5.34-5 7v16H56V56h10v7c0-5 4.48-7 10-7a10 10 0 0 1 10 10Z"/></svg>